<svg version="1.1" xmlns="http://www.w3.org/2000/svg" xmlns:xlink="http://www.w3.org/1999/xlink" viewBox="0 0 640 640" width="100" height="100">
  <defs>
    <path d="M430.58 24.81C458.44 36.3 484.6 51.89 507.99 70.88C549.83 104.74 582.68 149.6 602.24 199.75C600.21 199.76 598.2 199.77 596.19 199.76C583.12 167.09 564.46 136.65 541.07 110.35C504.91 69.33 457.59 38.27 405.5 21.62C344.44 1.9 277.13 2.11 216.18 22.2C178.93 34.44 144.06 53.9 114.16 79.3C78.05 109.83 49.04 148.76 30.43 192.27C4.19 252.87 -1.31 322.08 14.43 386.18C28.09 442.2 58.08 494.08 99.77 533.91C141.84 574.53 195.86 602.59 253.28 613.63C288.27 620.38 324.43 620.98 359.63 615.48C417.39 606.49 472.35 580.36 515.8 541.25C556.98 504.55 587.87 456.52 604.19 403.83C606.14 403.83 608.09 403.83 610.05 403.85C594.93 453.71 566.99 499.59 529.69 535.97C491.12 573.78 442.58 601.35 390.27 614.85C351.74 624.86 311.29 627.32 271.8 622.29C215.39 615.18 161.15 592.06 116.87 556.41C73.84 521.98 40.14 475.98 20.52 424.48C7.81 391.53 1.16 356.41 0 321.15C0 319.55 0 306.71 0 305.1C0.35 301.2 0.36 297.28 0.65 293.38C2.57 262.04 9.29 231.01 20.53 201.7C35.69 161.97 59.17 125.46 88.93 95.1C121.38 61.87 161.32 36.01 204.96 20.13C277.27 -6.4 359.45 -4.75 430.58 24.81Z" id="bdyLhcHCB"></path>
    <path d="M418.42 66.87C450.94 80.94 480.57 101.61 505.12 127.17C502.43 127.17 499.75 127.22 497.08 127.09C476.44 106.33 452.22 89.14 425.87 76.4C359.13 43.9 278.43 42.01 210.16 71.09C148.33 97.11 97.43 147.84 71.12 209.53C45.93 268 43.24 335.69 63.31 396.08C80.26 447.59 113.95 493.26 157.66 525.26C182.45 543.46 210.49 557.23 240.06 565.63C270.98 574.45 303.52 577.4 335.53 574.61C335.53 576.48 335.53 578.37 335.52 580.26C297.46 583.55 258.68 578.75 222.68 565.93C170.23 547.42 124 511.96 92.33 466.26C70.29 434.68 55.23 398.26 48.52 360.34C42.53 326.5 43.02 291.51 50.06 257.87C56.9 225.05 70.03 193.56 88.5 165.58C109.65 133.43 137.81 105.91 170.45 85.51C198.41 67.99 229.66 55.73 262.08 49.61C314.36 39.67 369.6 45.6 418.42 66.87Z" id="d1rJuOKJvY"></path>
    <path d="M314.54 88.48C314.56 90.36 314.57 92.25 314.56 94.13C280.73 93.73 246.8 101.2 216.41 116.08C170.5 138.42 132.88 177.34 112.22 224.04C88.64 276.81 87.38 339 108.62 392.73C127.62 441.33 164.79 482.45 211.02 506.58C241.11 522.37 274.97 530.8 308.92 531.24C343.41 531.79 378.03 524.13 408.95 508.79C442.49 492.25 471.47 466.82 492.7 436.08C494.91 436.11 497.14 436.11 499.37 436.11C470.93 479.4 427.06 512.3 377.45 527.23C340.93 538.36 301.57 539.88 264.27 531.78C213.97 520.98 167.91 492.03 136.14 451.6C116.94 427.35 102.83 399.08 95.09 369.14C86.43 335.76 85.62 300.39 92.66 266.63C103.07 216.03 131.86 169.55 172.29 137.44C212.17 105.33 263.35 87.77 314.54 88.48Z" id="g7PS957D"></path>
    <text id="bdY6RgfdR" x="174.85" y="261.63" font-size="75" font-family="-apple-system,BlinkMacSystemFont,Segoe UI,Helvetica,Arial,sans-serif,Apple Color Emoji,Segoe UI Emoji,Segoe UI Symbol;"  xml:space="preserve" dominant-baseline="text-before-edge">
      <tspan x="174.85" dy="0em" alignment-baseline="before-edge" dominant-baseline="text-before-edge" text-anchor="start">Sergey Zverev</tspan>
    </text>
  </defs>
  <g>
    <g>
      <g>
        <use xlink:href="#bdyLhcHCB" opacity="1" fill="#3e3e3e" fill-opacity="1"></use>
        <g>
          <use xlink:href="#bdyLhcHCB" opacity="1" fill-opacity="0" stroke="#000000" stroke-width="1" stroke-opacity="0"></use>
        </g>
      </g>
      <g>
        <use xlink:href="#d1rJuOKJvY" opacity="1" fill="#3e3e3e" fill-opacity="1"></use>
        <g><use xlink:href="#d1rJuOKJvY" opacity="1" fill-opacity="0" stroke="#000000" stroke-width="1" stroke-opacity="0"></use></g>
      </g>
      <g>
        <use xlink:href="#g7PS957D" opacity="1" fill="#3e3e3e" fill-opacity="1"></use>
        <g><use xlink:href="#g7PS957D" opacity="1" fill-opacity="0" stroke="#000000" stroke-width="1" stroke-opacity="0"></use></g>
      </g>
      <g id="cdxr4LRw3"><use xlink:href="#bdY6RgfdR" opacity="1" fill="#44403b" fill-opacity="1"></use>
      </g>
    </g>
  </g>
</svg>
